<svg aria-hidden="true" style="position:absolute;width:0;height:0" xmlns="http://www.w3.org/2000/svg" overflow="hidden"><defs><symbol id="icon-icon-name-user-form" viewBox="0 0 34 32"><path d="M16.889 16c2.947 0 5.333-2.387 5.333-5.333s-2.387-5.333-5.333-5.333c-2.947 0-5.333 2.387-5.333 5.333S13.943 16 16.889 16zm0 2.667c-3.56 0-10.667 1.787-10.667 5.333v1.333c0 .733.6 1.333 1.333 1.333h18.667c.733 0 1.333-.6 1.333-1.333V24c0-3.547-7.107-5.333-10.667-5.333z"/></symbol><symbol id="icon-icon-email-form" viewBox="0 0 32 32"><path d="M26.667 5.333H5.334A2.663 2.663 0 002.681 8l-.013 16c0 1.467 1.2 2.667 2.667 2.667h21.333c1.467 0 2.667-1.2 2.667-2.667V8c0-1.467-1.2-2.667-2.667-2.667zM26.133 11l-9.427 5.893a1.346 1.346 0 01-1.413 0L5.866 11a1.132 1.132 0 111.2-1.92l8.933 5.587 8.933-5.587a1.132 1.132 0 111.2 1.92z"/></symbol><symbol id="icon-modal-close" viewBox="0 0 32 32"><path d="M26.667 7.303l-1.97-1.97-7.808 7.808-7.808-7.808-1.97 1.97 7.808 7.808-7.808 7.808 1.97 1.97 7.808-7.808 7.808 7.808 1.97-1.97-7.808-7.808 7.808-7.808z"></path></symbol> <symbol id="icon-lock" viewBox="0 0 32 32">
<path d="M18.5 14h-0.5v-6c0-3.308-2.692-6-6-6h-4c-3.308 0-6 2.692-6 6v6h-0.5c-0.825 0-1.5 0.675-1.5 1.5v15c0 0.825 0.675 1.5 1.5 1.5h17c0.825 0 1.5-0.675 1.5-1.5v-15c0-0.825-0.675-1.5-1.5-1.5zM6 8c0-1.103 0.897-2 2-2h4c1.103 0 2 0.897 2 2v6h-8v-6z"></path>
<symbol id="icon-key" viewBox="0 0 24 24">
<path d="M6.984 14.016q0.797 0 1.406-0.609t0.609-1.406-0.609-1.406-1.406-0.609-1.383 0.609-0.586 1.406 0.586 1.406 1.383 0.609zM12.656 9.984h10.359v4.031h-2.016v3.984h-3.984v-3.984h-4.359q-0.609 1.641-2.273 2.813t-3.398 1.172q-2.484 0-4.242-1.758t-1.758-4.242 1.758-4.242 4.242-1.758q1.734 0 3.398 1.172t2.273 2.813z"></path>
</symbol></defs></svg>